# xmcd CD database file
#
# Track frame offsets:
#	150
#	12966
#	26943
#	42736
#	66249
#	85857
#	98917
#	113345
#	132158
#	145849
#	164330
#	185960
#
# Disc length: 2704 seconds
#
# Revision: 1
# Processed by: cddbd v1.5.2PL0 Copyright (c) Steve Scherf et al.
# Submitted via: CDex 1.51
#
DISCID=a80a8e0c
DTITLE=Randy Houser - Anything Goes (w/Bonus  Track)
DYEAR=2008
DGENRE=Country
TTITLE0=Boots On
TTITLE1=Anything Goes
TTITLE2=Wild Wild West
TTITLE3=Back To God
TTITLE4=Something Real
TTITLE5=My Kinda Country
TTITLE6=Strange
TTITLE7=Lie
TTITLE8=Paycheck Man
TTITLE9=How Many Times
TTITLE10=I'll Sleep
TTITLE11=Jeremiah
EXTD=YEAR: 2008
EXTT0=
EXTT1=
EXTT2=
EXTT3=
EXTT4=
EXTT5=
EXTT6=
EXTT7=
EXTT8=
EXTT9=
EXTT10=
EXTT11=
PLAYORDER=
